# xmcd
#
# Track frame offsets: 
#        150
#        1117
#        16379
#        17211
#        35181
#        39051
#        57141
#        59601
#        72936
#        100836
#        102988
#        132635
#        132987
#        133977
#        149614
#        152329
#        170584
#        172286
#        190293
#        192723
#        205525
#        231655
#        233365
#
# Disc length: 3506 seconds
#
# Revision: 0
# Processed by: cddbd v1.5.2PL0 Copyright (c) Steve Scherf et al.
# Submitted via: ExactAudioCopy v0.99pb5
#
DISCID=530db017
DTITLE=Highlands Country - June 20, 2010
DYEAR=2010
DGENRE=Country
TTITLE0=Talking
TTITLE1=He Ain't Never Done Me Nothing But Good
TTITLE2=Talking 2
TTITLE3=My Hallelujah Song
TTITLE4=Talking 3
TTITLE5=He Goes To Church
TTITLE6=Prayer
TTITLE7=Bill Announcements
TTITLE8=Temporary Home
TTITLE9=Talking 4
TTITLE10=Victory In Jesus
TTITLE11=Talking 5
TTITLE12=Talking
TTITLE13=He Ain't Never Done Me Nothing But Good
TTITLE14=Talking 2
TTITLE15=My Hallelujah Song
TTITLE16=Talking 3
TTITLE17=He Goes To Church
TTITLE18=Prayer
TTITLE19=Bill Announcements
TTITLE20=Temporary Home
TTITLE21=Talking 4
TTITLE22=Victory In Jesus
EXTD=
EXTT0=
EXTT1=
EXTT2=
EXTT3=
EXTT4=
EXTT5=
EXTT6=
EXTT7=
EXTT8=
EXTT9=
EXTT10=
EXTT11=
EXTT12=
EXTT13=
EXTT14=
EXTT15=
EXTT16=
EXTT17=
EXTT18=
EXTT19=
EXTT20=
EXTT21=
EXTT22=
PLAYORDER=
